<?xml version="1.0" encoding="UTF-8" standalone="no"?>
<!DOCTYPE svg PUBLIC "-//W3C//DTD SVG 1.1//EN" "http://www.w3.org/Graphics/SVG/1.1/DTD/svg11.dtd">
<svg width="100%" height="100%" viewBox="0 0 279 133" version="1.1" xmlns="http://www.w3.org/2000/svg" xmlns:xlink="http://www.w3.org/1999/xlink" xml:space="preserve" xmlns:serif="http://www.serif.com/" style="fill-rule:evenodd;clip-rule:evenodd;stroke-linejoin:round;stroke-miterlimit:2;">
    <g id="Layer_1">
        <path d="M137.15,68.83L155.66,42.83L137.11,42.83L137.11,36.39L165.51,36.39L165.51,41L147,67L165.56,67L165.56,73.47L137.16,73.47L137.15,68.83Z" style="fill:white;fill-rule:nonzero;"/>
        <rect x="171.58" y="36.39" width="7.84" height="37.09" style="fill:white;fill-rule:nonzero;"/>
        <path d="M184.47,36.39L214.93,36.39L214.93,42.86L203.58,42.86L203.58,73.48L195.83,73.48L195.83,42.85L184.47,42.85L184.47,36.39Z" style="fill:white;fill-rule:nonzero;"/>
        <path d="M220,36.39L245,36.39L245,42.86L227.83,42.86L227.83,51.7L243.7,51.7L243.7,58.17L227.83,58.17L227.83,67L245.05,67L245.05,73.47L220,73.47L220,36.39Z" style="fill:white;fill-rule:nonzero;"/>
        <path d="M139.46,78.5L145.07,92.2L145.26,92.2L150.87,78.5L153.25,78.5L153.25,95L151.38,95L151.38,82.47L151.22,82.47L146.06,95L144.26,95L139.1,82.47L138.94,82.47L138.94,95L137.07,95L137.07,78.5L139.46,78.5Z" style="fill:white;fill-rule:nonzero;"/>
        <path d="M155.68,95L161.74,78.5L163.8,78.5L169.86,95L167.77,95L166.11,90.33L159.44,90.33L157.78,95L155.68,95ZM165.48,88.55L162.84,81.11L162.71,81.11L160.07,88.55L165.48,88.55Z" style="fill:white;fill-rule:nonzero;"/>
        <path d="M185.38,95L183.45,95L174.45,82L174.29,82L174.29,95L172.29,95L172.29,78.5L174.22,78.5L183.22,91.5L183.38,91.5L183.38,78.5L185.38,78.5L185.38,95Z" style="fill:white;fill-rule:nonzero;"/>
        <path d="M187.81,95L193.87,78.5L195.93,78.5L202,95L199.9,95L198.24,90.33L191.57,90.33L189.91,95L187.81,95ZM197.61,88.55L195,81.11L194.87,81.11L192.23,88.55L197.61,88.55Z" style="fill:white;fill-rule:nonzero;"/>
        <path d="M210.23,80.15C207.3,80.15 204.94,82.47 204.94,86.76C204.94,91.05 207.29,93.37 210.35,93.37C210.422,93.373 210.494,93.375 210.567,93.375C213.085,93.375 215.157,91.303 215.157,88.785C215.157,88.703 215.154,88.622 215.15,88.54L210.8,88.54L210.8,86.75L217.08,86.75L217.08,88.52C217.086,88.634 217.089,88.747 217.089,88.861C217.089,92.356 214.214,95.231 210.719,95.231C210.593,95.231 210.466,95.228 210.34,95.22C206,95.23 203,92 203,86.75C203,81.5 206,78.27 210.22,78.27C213.49,78.134 216.395,80.443 217,83.66L214.94,83.66C214.386,81.54 212.42,80.074 210.23,80.15Z" style="fill:white;fill-rule:nonzero;"/>
        <path d="M220.36,78.5L230.36,78.5L230.36,80.27L222.36,80.27L222.36,85.85L229.8,85.85L229.8,87.62L222.36,87.62L222.36,93.23L230.45,93.23L230.45,95L220.36,95L220.36,78.5Z" style="fill:white;fill-rule:nonzero;"/>
        <path d="M233.79,78.5L239.36,78.5C243.23,78.5 244.97,80.64 244.97,83.56C245.132,85.619 243.853,87.538 241.89,88.18L245.61,95L243.29,95L239.81,88.55L235.81,88.55L235.81,95L233.81,95L233.79,78.5ZM239.33,86.75C241.97,86.75 243,85.54 243,83.56C243,81.58 242,80.27 239.29,80.27L235.78,80.27L235.78,86.75L239.33,86.75Z" style="fill:white;fill-rule:nonzero;"/>
        <g transform="matrix(1,0,0,1,65.9449,34.5689)">
            <path d="M0,76C20.987,76 38,58.987 38,38C38,17.013 20.987,0 0,0C-20.987,0 -38,17.013 -38,38C-38,58.987 -20.987,76 0,76" style="fill:rgb(30,20,62);fill-rule:nonzero;"/>
        </g>
        <g transform="matrix(1,0,0,1,74.9449,21.9311)">
            <path d="M0,76C20.987,76 38,58.987 38,38C38,17.013 20.987,0 0,0C-20.987,0 -38,17.013 -38,38C-38,58.987 -20.987,76 0,76" style="fill:white;fill-rule:nonzero;"/>
        </g>
        <g transform="matrix(1,0,0,1,57.4903,33.0755)">
            <path d="M0,26.33C-0.002,26.464 -0.113,26.572 -0.247,26.57C-0.282,26.569 -0.317,26.561 -0.349,26.546L-3.419,25.102C-4.487,24.6 -5.737,24.675 -6.738,25.301C-6.993,25.47 -7.336,25.4 -7.504,25.145C-7.57,25.045 -7.602,24.928 -7.595,24.809C-6.821,15.28 -0.727,7.008 8.143,3.444C8.229,3.409 8.271,3.31 8.237,3.223L6.97,-0.002C6.935,-0.09 6.978,-0.19 7.066,-0.225C7.108,-0.242 7.155,-0.241 7.197,-0.223L12.895,2.05L16.529,3.489C17.027,3.684 17.272,4.246 17.076,4.744C17.068,4.765 17.059,4.785 17.049,4.805L14.837,9.491L12.762,13.916C12.725,14.003 12.624,14.044 12.537,14.007C12.497,13.989 12.464,13.957 12.447,13.916L11.18,10.68C11.144,10.591 11.043,10.547 10.953,10.581C4.502,13.193 0.204,19.372 0,26.33" style="fill:rgb(135,36,112);fill-rule:nonzero;"/>
        </g>
        <g transform="matrix(1,0,0,1,74.5065,67.8144)">
            <path d="M0,9.686C0.134,9.688 0.242,9.799 0.24,9.933C0.239,9.968 0.231,10.003 0.216,10.035L-1.25,13.094C-1.661,13.964 -1.693,14.965 -1.339,15.86C-1.26,16.052 -1.163,16.238 -1.051,16.413C-0.883,16.668 -0.953,17.011 -1.207,17.179C-1.307,17.245 -1.425,17.277 -1.543,17.27C-11.063,16.487 -19.324,10.395 -22.886,1.532C-22.921,1.445 -23.02,1.404 -23.107,1.438L-26.326,2.705C-26.414,2.74 -26.514,2.697 -26.549,2.609C-26.566,2.567 -26.566,2.52 -26.548,2.478L-24.269,-3.209L-22.825,-6.849C-22.629,-7.346 -22.067,-7.591 -21.569,-7.396C-21.549,-7.387 -21.528,-7.379 -21.508,-7.369L-16.823,-5.156L-12.43,-3.087C-12.343,-3.05 -12.303,-2.949 -12.34,-2.862C-12.357,-2.822 -12.39,-2.789 -12.43,-2.772L-15.633,-1.511C-15.723,-1.475 -15.767,-1.374 -15.733,-1.284C-13.124,5.166 -6.954,9.468 0,9.686" style="fill:rgb(61,46,128);fill-rule:nonzero;"/>
        </g>
        <g transform="matrix(1,0,0,1,92.618,86.7866)">
            <path d="M0,-26.319C0.002,-26.453 0.113,-26.561 0.247,-26.559C0.282,-26.558 0.317,-26.55 0.349,-26.535L3.408,-25.091C4.278,-24.68 5.279,-24.648 6.174,-25.002C6.367,-25.083 6.552,-25.181 6.727,-25.296C6.98,-25.467 7.324,-25.402 7.495,-25.149C7.564,-25.047 7.597,-24.926 7.59,-24.803C6.81,-15.27 0.708,-6.997 -8.171,-3.439C-8.257,-3.403 -8.299,-3.305 -8.265,-3.218L-6.998,0.002C-6.963,0.09 -7.006,0.19 -7.093,0.225C-7.136,0.242 -7.183,0.241 -7.225,0.223L-12.923,-2.039L-16.546,-3.489C-17.044,-3.684 -17.288,-4.246 -17.093,-4.744C-17.084,-4.765 -17.076,-4.785 -17.066,-4.805L-14.853,-9.491L-12.779,-13.916C-12.741,-14.003 -12.641,-14.044 -12.554,-14.007C-12.513,-13.989 -12.481,-13.957 -12.463,-13.916L-11.197,-10.697C-11.161,-10.607 -11.06,-10.563 -10.97,-10.597C-4.524,-13.205 -0.223,-19.369 0,-26.319" style="fill:rgb(250,171,23);fill-rule:nonzero;"/>
        </g>
        <g transform="matrix(1,0,0,1,76.6086,58.7753)">
            <path d="M0,-23.146C-0.169,-23.401 -0.099,-23.744 0.156,-23.913C0.256,-23.978 0.373,-24.01 0.492,-24.003C10.025,-23.225 18.299,-17.125 21.862,-8.249C21.898,-8.162 21.996,-8.12 22.083,-8.154L25.303,-9.421C25.391,-9.456 25.491,-9.414 25.526,-9.326C25.543,-9.284 25.542,-9.236 25.524,-9.194L23.245,-3.508L21.79,0.121C21.595,0.619 21.033,0.864 20.535,0.668C20.514,0.66 20.494,0.651 20.474,0.641L15.794,-1.571L11.368,-3.646C11.281,-3.683 11.241,-3.784 11.278,-3.871C11.295,-3.912 11.328,-3.944 11.368,-3.961L14.588,-5.228C14.677,-5.264 14.721,-5.365 14.687,-5.455C12.074,-11.889 5.912,-16.177 -1.029,-16.392C-1.163,-16.394 -1.271,-16.504 -1.269,-16.639C-1.268,-16.674 -1.26,-16.708 -1.245,-16.74L0.199,-19.816C0.61,-20.686 0.642,-21.687 0.288,-22.582C0.209,-22.778 0.113,-22.967 0,-23.146" style="fill:rgb(227,28,92);fill-rule:nonzero;"/>
        </g>
    </g>
</svg>
